<mxfile host="Electron" agent="Mozilla/5.0 (X11; Linux x86_64) AppleWebKit/537.36 (KHTML, like Gecko) draw.io/24.7.17 Chrome/128.0.6613.36 Electron/32.0.1 Safari/537.36" version="24.7.17">
  <diagram name="Página-1" id="svjExc7lHkP1cCi1oY9i">
    <mxGraphModel dx="1687" dy="1789" grid="0" gridSize="10" guides="0" tooltips="1" connect="0" arrows="0" fold="1" page="0" pageScale="1" pageWidth="827" pageHeight="1169" math="0" shadow="0">
      <root>
        <mxCell id="0" />
        <mxCell id="1" parent="0" />
        <mxCell id="kB2_EqMijkBHqLcv5fKs-1" value="" style="rounded=0;whiteSpace=wrap;html=1;fillColor=none;" vertex="1" parent="1">
          <mxGeometry x="322" y="-347" width="1096" height="244" as="geometry" />
        </mxCell>
        <mxCell id="kB2_EqMijkBHqLcv5fKs-2" value="Usuário" style="shape=umlActor;verticalLabelPosition=bottom;verticalAlign=top;html=1;" vertex="1" parent="1">
          <mxGeometry x="140" y="-530" width="30" height="60" as="geometry" />
        </mxCell>
        <mxCell id="kB2_EqMijkBHqLcv5fKs-3" value="" style="endArrow=none;dashed=1;html=1;rounded=0;" edge="1" parent="1">
          <mxGeometry width="50" height="50" relative="1" as="geometry">
            <mxPoint x="156" y="7" as="sourcePoint" />
            <mxPoint x="156" y="-440" as="targetPoint" />
          </mxGeometry>
        </mxCell>
        <mxCell id="kB2_EqMijkBHqLcv5fKs-4" style="edgeStyle=orthogonalEdgeStyle;rounded=0;orthogonalLoop=1;jettySize=auto;html=1;curved=0;" edge="1" parent="1">
          <mxGeometry relative="1" as="geometry">
            <mxPoint x="301" y="-392" as="sourcePoint" />
            <mxPoint x="436" y="-392" as="targetPoint" />
            <Array as="points" />
          </mxGeometry>
        </mxCell>
        <mxCell id="kB2_EqMijkBHqLcv5fKs-5" value="executarOrdem()" style="edgeLabel;html=1;align=center;verticalAlign=middle;resizable=0;points=[];" vertex="1" connectable="0" parent="kB2_EqMijkBHqLcv5fKs-4">
          <mxGeometry x="-0.1276" y="1" relative="1" as="geometry">
            <mxPoint x="4" y="-7" as="offset" />
          </mxGeometry>
        </mxCell>
        <mxCell id="kB2_EqMijkBHqLcv5fKs-6" value="" style="html=1;points=[[0,0,0,0,5],[0,1,0,0,-5],[1,0,0,0,5],[1,1,0,0,-5]];perimeter=orthogonalPerimeter;outlineConnect=0;targetShapes=umlLifeline;portConstraint=eastwest;newEdgeStyle={&quot;curved&quot;:0,&quot;rounded&quot;:0};" vertex="1" parent="1">
          <mxGeometry x="151" y="-426" width="10" height="410" as="geometry" />
        </mxCell>
        <mxCell id="kB2_EqMijkBHqLcv5fKs-7" value=":Usuario" style="shape=umlLifeline;perimeter=lifelinePerimeter;whiteSpace=wrap;html=1;container=1;dropTarget=0;collapsible=0;recursiveResize=0;outlineConnect=0;portConstraint=eastwest;newEdgeStyle={&quot;curved&quot;:0,&quot;rounded&quot;:0};" vertex="1" parent="1">
          <mxGeometry x="589" y="-496" width="140" height="477" as="geometry" />
        </mxCell>
        <mxCell id="kB2_EqMijkBHqLcv5fKs-8" value="" style="html=1;points=[[0,0,0,0,5],[0,1,0,0,-5],[1,0,0,0,5],[1,1,0,0,-5]];perimeter=orthogonalPerimeter;outlineConnect=0;targetShapes=umlLifeline;portConstraint=eastwest;newEdgeStyle={&quot;curved&quot;:0,&quot;rounded&quot;:0};" vertex="1" parent="kB2_EqMijkBHqLcv5fKs-7">
          <mxGeometry x="65" y="111" width="10" height="30" as="geometry" />
        </mxCell>
        <mxCell id="kB2_EqMijkBHqLcv5fKs-9" value="" style="html=1;points=[[0,0,0,0,5],[0,1,0,0,-5],[1,0,0,0,5],[1,1,0,0,-5]];perimeter=orthogonalPerimeter;outlineConnect=0;targetShapes=umlLifeline;portConstraint=eastwest;newEdgeStyle={&quot;curved&quot;:0,&quot;rounded&quot;:0};" vertex="1" parent="kB2_EqMijkBHqLcv5fKs-7">
          <mxGeometry x="65" y="212" width="10" height="122" as="geometry" />
        </mxCell>
        <mxCell id="kB2_EqMijkBHqLcv5fKs-10" value="" style="html=1;points=[[0,0,0,0,5],[0,1,0,0,-5],[1,0,0,0,5],[1,1,0,0,-5]];perimeter=orthogonalPerimeter;outlineConnect=0;targetShapes=umlLifeline;portConstraint=eastwest;newEdgeStyle={&quot;curved&quot;:0,&quot;rounded&quot;:0};" vertex="1" parent="kB2_EqMijkBHqLcv5fKs-7">
          <mxGeometry x="65" y="374" width="10" height="11" as="geometry" />
        </mxCell>
        <mxCell id="kB2_EqMijkBHqLcv5fKs-11" value="" style="html=1;points=[[0,0,0,0,5],[0,1,0,0,-5],[1,0,0,0,5],[1,1,0,0,-5]];perimeter=orthogonalPerimeter;outlineConnect=0;targetShapes=umlLifeline;portConstraint=eastwest;newEdgeStyle={&quot;curved&quot;:0,&quot;rounded&quot;:0};" vertex="1" parent="kB2_EqMijkBHqLcv5fKs-7">
          <mxGeometry x="65" y="424" width="10" height="11" as="geometry" />
        </mxCell>
        <mxCell id="kB2_EqMijkBHqLcv5fKs-12" value=":APIB3" style="shape=umlLifeline;perimeter=lifelinePerimeter;whiteSpace=wrap;html=1;container=1;dropTarget=0;collapsible=0;recursiveResize=0;outlineConnect=0;portConstraint=eastwest;newEdgeStyle={&quot;curved&quot;:0,&quot;rounded&quot;:0};" vertex="1" parent="1">
          <mxGeometry x="753" y="-495" width="130" height="472" as="geometry" />
        </mxCell>
        <mxCell id="kB2_EqMijkBHqLcv5fKs-13" value="" style="html=1;points=[[0,0,0,0,5],[0,1,0,0,-5],[1,0,0,0,5],[1,1,0,0,-5]];perimeter=orthogonalPerimeter;outlineConnect=0;targetShapes=umlLifeline;portConstraint=eastwest;newEdgeStyle={&quot;curved&quot;:0,&quot;rounded&quot;:0};" vertex="1" parent="kB2_EqMijkBHqLcv5fKs-12">
          <mxGeometry x="61" y="164" width="9" height="24" as="geometry" />
        </mxCell>
        <mxCell id="kB2_EqMijkBHqLcv5fKs-14" value="" style="endArrow=open;html=1;rounded=0;dashed=1;startArrow=none;startFill=0;endFill=0;" edge="1" parent="1">
          <mxGeometry width="50" height="50" relative="1" as="geometry">
            <mxPoint x="811" y="-309" as="sourcePoint" />
            <mxPoint x="445" y="-308.9999999999999" as="targetPoint" />
          </mxGeometry>
        </mxCell>
        <mxCell id="kB2_EqMijkBHqLcv5fKs-15" value="sucessoEnvio - boolean" style="edgeLabel;html=1;align=center;verticalAlign=middle;resizable=0;points=[];" vertex="1" connectable="0" parent="kB2_EqMijkBHqLcv5fKs-14">
          <mxGeometry x="-0.0968" y="2" relative="1" as="geometry">
            <mxPoint x="93" y="-11" as="offset" />
          </mxGeometry>
        </mxCell>
        <mxCell id="kB2_EqMijkBHqLcv5fKs-16" style="edgeStyle=orthogonalEdgeStyle;rounded=0;orthogonalLoop=1;jettySize=auto;html=1;curved=0;startArrow=none;startFill=0;endArrow=classic;endFill=1;" edge="1" parent="1">
          <mxGeometry relative="1" as="geometry">
            <mxPoint x="448" y="-380" as="sourcePoint" />
            <mxPoint x="652" y="-379" as="targetPoint" />
            <Array as="points">
              <mxPoint x="448" y="-379" />
            </Array>
          </mxGeometry>
        </mxCell>
        <mxCell id="kB2_EqMijkBHqLcv5fKs-17" value="verificarQuantidadeDisponivel()" style="edgeLabel;html=1;align=center;verticalAlign=middle;resizable=0;points=[];" vertex="1" connectable="0" parent="kB2_EqMijkBHqLcv5fKs-16">
          <mxGeometry x="-0.3857" y="-2" relative="1" as="geometry">
            <mxPoint x="24" y="-11" as="offset" />
          </mxGeometry>
        </mxCell>
        <mxCell id="kB2_EqMijkBHqLcv5fKs-18" value="" style="edgeStyle=none;orthogonalLoop=1;jettySize=auto;html=1;rounded=0;startArrow=none;startFill=0;endArrow=classic;endFill=1;entryX=0.8;entryY=0.916;entryDx=0;entryDy=0;entryPerimeter=0;" edge="1" parent="1">
          <mxGeometry width="100" relative="1" as="geometry">
            <mxPoint x="654" y="-67" as="sourcePoint" />
            <mxPoint x="302" y="-66.024" as="targetPoint" />
            <Array as="points" />
          </mxGeometry>
        </mxCell>
        <mxCell id="kB2_EqMijkBHqLcv5fKs-19" value="emiteNotificacao()" style="edgeLabel;html=1;align=center;verticalAlign=middle;resizable=0;points=[];" vertex="1" connectable="0" parent="kB2_EqMijkBHqLcv5fKs-18">
          <mxGeometry x="-0.1602" y="1" relative="1" as="geometry">
            <mxPoint x="-135" y="-10" as="offset" />
          </mxGeometry>
        </mxCell>
        <mxCell id="kB2_EqMijkBHqLcv5fKs-20" value=":OrdemVenda" style="shape=umlLifeline;perimeter=lifelinePerimeter;whiteSpace=wrap;html=1;container=1;dropTarget=0;collapsible=0;recursiveResize=0;outlineConnect=0;portConstraint=eastwest;newEdgeStyle={&quot;curved&quot;:0,&quot;rounded&quot;:0};" vertex="1" parent="1">
          <mxGeometry x="377" y="-492" width="130" height="469" as="geometry" />
        </mxCell>
        <mxCell id="kB2_EqMijkBHqLcv5fKs-21" value="" style="html=1;points=[[0,0,0,0,5],[0,1,0,0,-5],[1,0,0,0,5],[1,1,0,0,-5]];perimeter=orthogonalPerimeter;outlineConnect=0;targetShapes=umlLifeline;portConstraint=eastwest;newEdgeStyle={&quot;curved&quot;:0,&quot;rounded&quot;:0};" vertex="1" parent="kB2_EqMijkBHqLcv5fKs-20">
          <mxGeometry x="60" y="99" width="10" height="276" as="geometry" />
        </mxCell>
        <mxCell id="kB2_EqMijkBHqLcv5fKs-22" value="" style="edgeStyle=none;orthogonalLoop=1;jettySize=auto;html=1;rounded=0;startArrow=open;startFill=0;endArrow=none;endFill=0;dashed=1;" edge="1" parent="1">
          <mxGeometry width="100" relative="1" as="geometry">
            <mxPoint x="447" y="-361" as="sourcePoint" />
            <mxPoint x="654" y="-361" as="targetPoint" />
            <Array as="points" />
          </mxGeometry>
        </mxCell>
        <mxCell id="kB2_EqMijkBHqLcv5fKs-23" value="quantidade" style="edgeLabel;html=1;align=center;verticalAlign=middle;resizable=0;points=[];" vertex="1" connectable="0" parent="kB2_EqMijkBHqLcv5fKs-22">
          <mxGeometry x="-0.084" y="-1" relative="1" as="geometry">
            <mxPoint y="-9" as="offset" />
          </mxGeometry>
        </mxCell>
        <mxCell id="kB2_EqMijkBHqLcv5fKs-24" value="" style="edgeStyle=none;orthogonalLoop=1;jettySize=auto;html=1;rounded=0;" edge="1" parent="1">
          <mxGeometry width="100" relative="1" as="geometry">
            <mxPoint x="448" y="-330" as="sourcePoint" />
            <mxPoint x="813" y="-330" as="targetPoint" />
            <Array as="points" />
          </mxGeometry>
        </mxCell>
        <mxCell id="kB2_EqMijkBHqLcv5fKs-25" value="enviarOrdem()" style="edgeLabel;html=1;align=center;verticalAlign=middle;resizable=0;points=[];" vertex="1" connectable="0" parent="kB2_EqMijkBHqLcv5fKs-24">
          <mxGeometry x="-0.1625" relative="1" as="geometry">
            <mxPoint y="-8" as="offset" />
          </mxGeometry>
        </mxCell>
        <mxCell id="kB2_EqMijkBHqLcv5fKs-26" value="" style="endArrow=classic;html=1;rounded=0;entryX=0.2;entryY=0.518;entryDx=0;entryDy=0;entryPerimeter=0;" edge="1" parent="1">
          <mxGeometry width="50" height="50" relative="1" as="geometry">
            <mxPoint x="447" y="-280" as="sourcePoint" />
            <mxPoint x="655.0000000000002" y="-279.90999999999997" as="targetPoint" />
            <Array as="points">
              <mxPoint x="598" y="-280" />
            </Array>
          </mxGeometry>
        </mxCell>
        <mxCell id="kB2_EqMijkBHqLcv5fKs-27" value="atualizarSaldoUsuario()" style="edgeLabel;html=1;align=center;verticalAlign=middle;resizable=0;points=[];" vertex="1" connectable="0" parent="kB2_EqMijkBHqLcv5fKs-26">
          <mxGeometry x="0.3906" y="2" relative="1" as="geometry">
            <mxPoint x="-40" y="-8" as="offset" />
          </mxGeometry>
        </mxCell>
        <mxCell id="kB2_EqMijkBHqLcv5fKs-28" value="" style="endArrow=classic;html=1;rounded=0;" edge="1" parent="1">
          <mxGeometry width="50" height="50" relative="1" as="geometry">
            <mxPoint x="664" y="-263" as="sourcePoint" />
            <mxPoint x="664" y="-251" as="targetPoint" />
            <Array as="points">
              <mxPoint x="725.19" y="-263" />
              <mxPoint x="725" y="-251" />
              <mxPoint x="693" y="-251" />
            </Array>
          </mxGeometry>
        </mxCell>
        <mxCell id="kB2_EqMijkBHqLcv5fKs-29" value="creditarSaldo()" style="edgeLabel;html=1;align=center;verticalAlign=middle;resizable=0;points=[];" vertex="1" connectable="0" parent="kB2_EqMijkBHqLcv5fKs-28">
          <mxGeometry x="-0.0386" y="2" relative="1" as="geometry">
            <mxPoint x="-21" y="-13" as="offset" />
          </mxGeometry>
        </mxCell>
        <mxCell id="kB2_EqMijkBHqLcv5fKs-30" value="" style="endArrow=classic;html=1;rounded=0;entryX=0.2;entryY=0.518;entryDx=0;entryDy=0;entryPerimeter=0;" edge="1" parent="1">
          <mxGeometry width="50" height="50" relative="1" as="geometry">
            <mxPoint x="449" y="-213" as="sourcePoint" />
            <mxPoint x="657.0000000000002" y="-212.90999999999997" as="targetPoint" />
            <Array as="points">
              <mxPoint x="600" y="-213" />
            </Array>
          </mxGeometry>
        </mxCell>
        <mxCell id="kB2_EqMijkBHqLcv5fKs-31" value="atualizarCarteiraUsuario(acao)" style="edgeLabel;html=1;align=center;verticalAlign=middle;resizable=0;points=[];" vertex="1" connectable="0" parent="kB2_EqMijkBHqLcv5fKs-30">
          <mxGeometry x="0.3906" y="2" relative="1" as="geometry">
            <mxPoint x="-40" y="-8" as="offset" />
          </mxGeometry>
        </mxCell>
        <mxCell id="kB2_EqMijkBHqLcv5fKs-32" value=":Carteira" style="shape=umlLifeline;perimeter=lifelinePerimeter;whiteSpace=wrap;html=1;container=1;dropTarget=0;collapsible=0;recursiveResize=0;outlineConnect=0;portConstraint=eastwest;newEdgeStyle={&quot;curved&quot;:0,&quot;rounded&quot;:0};" vertex="1" parent="1">
          <mxGeometry x="908" y="-494" width="130" height="478" as="geometry" />
        </mxCell>
        <mxCell id="kB2_EqMijkBHqLcv5fKs-33" value="" style="html=1;points=[[0,0,0,0,5],[0,1,0,0,-5],[1,0,0,0,5],[1,1,0,0,-5]];perimeter=orthogonalPerimeter;outlineConnect=0;targetShapes=umlLifeline;portConstraint=eastwest;newEdgeStyle={&quot;curved&quot;:0,&quot;rounded&quot;:0};" vertex="1" parent="kB2_EqMijkBHqLcv5fKs-32">
          <mxGeometry x="61" y="277" width="9" height="19" as="geometry" />
        </mxCell>
        <mxCell id="kB2_EqMijkBHqLcv5fKs-34" value="acao:Acao" style="shape=umlLifeline;perimeter=lifelinePerimeter;whiteSpace=wrap;html=1;container=1;dropTarget=0;collapsible=0;recursiveResize=0;outlineConnect=0;portConstraint=eastwest;newEdgeStyle={&quot;curved&quot;:0,&quot;rounded&quot;:0};" vertex="1" parent="1">
          <mxGeometry x="1059" y="-494" width="130" height="478" as="geometry" />
        </mxCell>
        <mxCell id="kB2_EqMijkBHqLcv5fKs-35" value="" style="html=1;points=[[0,0,0,0,5],[0,1,0,0,-5],[1,0,0,0,5],[1,1,0,0,-5]];perimeter=orthogonalPerimeter;outlineConnect=0;targetShapes=umlLifeline;portConstraint=eastwest;newEdgeStyle={&quot;curved&quot;:0,&quot;rounded&quot;:0};" vertex="1" parent="kB2_EqMijkBHqLcv5fKs-34">
          <mxGeometry x="60" y="252" width="9" height="16" as="geometry" />
        </mxCell>
        <mxCell id="kB2_EqMijkBHqLcv5fKs-68" value="" style="shape=umlDestroy;whiteSpace=wrap;html=1;strokeWidth=3;targetShapes=umlLifeline;" vertex="1" parent="kB2_EqMijkBHqLcv5fKs-34">
          <mxGeometry x="55" y="266" width="20" height="21" as="geometry" />
        </mxCell>
        <mxCell id="kB2_EqMijkBHqLcv5fKs-36" value="" style="endArrow=classic;html=1;rounded=0;" edge="1" parent="1">
          <mxGeometry width="50" height="50" relative="1" as="geometry">
            <mxPoint x="448" y="-235" as="sourcePoint" />
            <mxPoint x="1120" y="-235" as="targetPoint" />
          </mxGeometry>
        </mxCell>
        <mxCell id="kB2_EqMijkBHqLcv5fKs-37" value="&amp;lt;&amp;lt;destroy&amp;gt;&amp;gt;" style="edgeLabel;html=1;align=center;verticalAlign=middle;resizable=0;points=[];" vertex="1" connectable="0" parent="kB2_EqMijkBHqLcv5fKs-36">
          <mxGeometry x="-0.1247" y="1" relative="1" as="geometry">
            <mxPoint x="-255" y="-10" as="offset" />
          </mxGeometry>
        </mxCell>
        <mxCell id="kB2_EqMijkBHqLcv5fKs-38" value="" style="endArrow=classic;html=1;rounded=0;" edge="1" parent="1">
          <mxGeometry width="50" height="50" relative="1" as="geometry">
            <mxPoint x="664" y="-207" as="sourcePoint" />
            <mxPoint x="968" y="-207" as="targetPoint" />
          </mxGeometry>
        </mxCell>
        <mxCell id="kB2_EqMijkBHqLcv5fKs-39" value="removerAcao(acao)" style="edgeLabel;html=1;align=center;verticalAlign=middle;resizable=0;points=[];" vertex="1" connectable="0" parent="kB2_EqMijkBHqLcv5fKs-38">
          <mxGeometry x="0.326" y="-1" relative="1" as="geometry">
            <mxPoint x="-129" y="-11" as="offset" />
          </mxGeometry>
        </mxCell>
        <mxCell id="kB2_EqMijkBHqLcv5fKs-40" value=":HistoricoTransacoes" style="shape=umlLifeline;perimeter=lifelinePerimeter;whiteSpace=wrap;html=1;container=1;dropTarget=0;collapsible=0;recursiveResize=0;outlineConnect=0;portConstraint=eastwest;newEdgeStyle={&quot;curved&quot;:0,&quot;rounded&quot;:0};" vertex="1" parent="1">
          <mxGeometry x="1206" y="-494" width="130" height="478" as="geometry" />
        </mxCell>
        <mxCell id="kB2_EqMijkBHqLcv5fKs-41" value="" style="html=1;points=[[0,0,0,0,5],[0,1,0,0,-5],[1,0,0,0,5],[1,1,0,0,-5]];perimeter=orthogonalPerimeter;outlineConnect=0;targetShapes=umlLifeline;portConstraint=eastwest;newEdgeStyle={&quot;curved&quot;:0,&quot;rounded&quot;:0};" vertex="1" parent="kB2_EqMijkBHqLcv5fKs-40">
          <mxGeometry x="61" y="303" width="9" height="16" as="geometry" />
        </mxCell>
        <mxCell id="kB2_EqMijkBHqLcv5fKs-42" value="" style="endArrow=classic;html=1;rounded=0;" edge="1" parent="1">
          <mxGeometry width="50" height="50" relative="1" as="geometry">
            <mxPoint x="665" y="-184" as="sourcePoint" />
            <mxPoint x="1268" y="-184" as="targetPoint" />
          </mxGeometry>
        </mxCell>
        <mxCell id="kB2_EqMijkBHqLcv5fKs-43" value="adicionarTransacao(venda)" style="edgeLabel;html=1;align=center;verticalAlign=middle;resizable=0;points=[];" vertex="1" connectable="0" parent="kB2_EqMijkBHqLcv5fKs-42">
          <mxGeometry x="-0.2296" y="-1" relative="1" as="geometry">
            <mxPoint x="-160" y="-9" as="offset" />
          </mxGeometry>
        </mxCell>
        <mxCell id="kB2_EqMijkBHqLcv5fKs-44" value="" style="endArrow=classic;html=1;rounded=0;" edge="1" parent="1">
          <mxGeometry width="50" height="50" relative="1" as="geometry">
            <mxPoint x="448" y="-168" as="sourcePoint" />
            <mxPoint x="655" y="-168" as="targetPoint" />
          </mxGeometry>
        </mxCell>
        <mxCell id="kB2_EqMijkBHqLcv5fKs-45" value="adicionarNotificacao(&quot;sucesso&quot;)" style="edgeLabel;html=1;align=center;verticalAlign=middle;resizable=0;points=[];fontSize=10;" vertex="1" connectable="0" parent="kB2_EqMijkBHqLcv5fKs-44">
          <mxGeometry x="0.329" y="-2" relative="1" as="geometry">
            <mxPoint x="-56" y="-12" as="offset" />
          </mxGeometry>
        </mxCell>
        <mxCell id="kB2_EqMijkBHqLcv5fKs-46" value="API B3" style="shape=umlActor;verticalLabelPosition=bottom;verticalAlign=top;html=1;" vertex="1" parent="1">
          <mxGeometry x="1380" y="-531" width="30" height="60" as="geometry" />
        </mxCell>
        <mxCell id="kB2_EqMijkBHqLcv5fKs-47" value="" style="endArrow=none;dashed=1;html=1;rounded=0;" edge="1" parent="1">
          <mxGeometry width="50" height="50" relative="1" as="geometry">
            <mxPoint x="1395" y="-17" as="sourcePoint" />
            <mxPoint x="1394.72" y="-441" as="targetPoint" />
          </mxGeometry>
        </mxCell>
        <mxCell id="kB2_EqMijkBHqLcv5fKs-48" value="" style="html=1;points=[[0,0,0,0,5],[0,1,0,0,-5],[1,0,0,0,5],[1,1,0,0,-5]];perimeter=orthogonalPerimeter;outlineConnect=0;targetShapes=umlLifeline;portConstraint=eastwest;newEdgeStyle={&quot;curved&quot;:0,&quot;rounded&quot;:0};" vertex="1" parent="1">
          <mxGeometry x="1390" y="-326" width="10" height="11" as="geometry" />
        </mxCell>
        <mxCell id="kB2_EqMijkBHqLcv5fKs-49" value="" style="edgeStyle=none;orthogonalLoop=1;jettySize=auto;html=1;rounded=0;" edge="1" parent="1">
          <mxGeometry width="100" relative="1" as="geometry">
            <mxPoint x="823" y="-326" as="sourcePoint" />
            <mxPoint x="1389" y="-326" as="targetPoint" />
            <Array as="points" />
          </mxGeometry>
        </mxCell>
        <mxCell id="kB2_EqMijkBHqLcv5fKs-50" value="envia ordem de venda" style="edgeLabel;html=1;align=center;verticalAlign=middle;resizable=0;points=[];" vertex="1" connectable="0" parent="kB2_EqMijkBHqLcv5fKs-49">
          <mxGeometry x="-0.1625" relative="1" as="geometry">
            <mxPoint x="-165" y="-10" as="offset" />
          </mxGeometry>
        </mxCell>
        <mxCell id="kB2_EqMijkBHqLcv5fKs-51" value="" style="endArrow=open;html=1;rounded=0;dashed=1;startArrow=none;startFill=0;endFill=0;" edge="1" parent="1" target="kB2_EqMijkBHqLcv5fKs-13">
          <mxGeometry width="50" height="50" relative="1" as="geometry">
            <mxPoint x="1389" y="-315" as="sourcePoint" />
            <mxPoint x="1023" y="-314.9999999999999" as="targetPoint" />
          </mxGeometry>
        </mxCell>
        <mxCell id="kB2_EqMijkBHqLcv5fKs-52" value="confirmação" style="edgeLabel;html=1;align=center;verticalAlign=middle;resizable=0;points=[];" vertex="1" connectable="0" parent="kB2_EqMijkBHqLcv5fKs-51">
          <mxGeometry x="-0.0968" y="2" relative="1" as="geometry">
            <mxPoint x="218" y="7" as="offset" />
          </mxGeometry>
        </mxCell>
        <mxCell id="kB2_EqMijkBHqLcv5fKs-53" value="[se usuário possui&lt;div&gt;a quantidade&lt;/div&gt;&lt;div&gt;informada]&lt;/div&gt;" style="text;html=1;align=center;verticalAlign=middle;resizable=0;points=[];autosize=1;strokeColor=none;fillColor=none;fontSize=9;" vertex="1" parent="1">
          <mxGeometry x="321" y="-328" width="91" height="44" as="geometry" />
        </mxCell>
        <mxCell id="kB2_EqMijkBHqLcv5fKs-54" value="[se não há&lt;div&gt;quantidade suficiente]&lt;/div&gt;" style="text;html=1;align=center;verticalAlign=middle;resizable=0;points=[];autosize=1;strokeColor=none;fillColor=none;fontSize=9;" vertex="1" parent="1">
          <mxGeometry x="319" y="-138" width="106" height="34" as="geometry" />
        </mxCell>
        <mxCell id="kB2_EqMijkBHqLcv5fKs-55" value="adicionarNotificacao(&quot;quantidade insuficiente&quot;)" style="edgeLabel;html=1;align=center;verticalAlign=middle;resizable=0;points=[];fontSize=10;" vertex="1" connectable="0" parent="1">
          <mxGeometry x="552.9999999999999" y="-129" as="geometry" />
        </mxCell>
        <mxCell id="kB2_EqMijkBHqLcv5fKs-56" value="" style="endArrow=none;dashed=1;html=1;rounded=0;exitX=0;exitY=0.844;exitDx=0;exitDy=0;exitPerimeter=0;" edge="1" parent="1" source="kB2_EqMijkBHqLcv5fKs-1">
          <mxGeometry width="50" height="50" relative="1" as="geometry">
            <mxPoint x="353" y="-141" as="sourcePoint" />
            <mxPoint x="1417" y="-141" as="targetPoint" />
          </mxGeometry>
        </mxCell>
        <mxCell id="kB2_EqMijkBHqLcv5fKs-57" value="" style="endArrow=classic;html=1;rounded=0;" edge="1" parent="1">
          <mxGeometry width="50" height="50" relative="1" as="geometry">
            <mxPoint x="447" y="-117" as="sourcePoint" />
            <mxPoint x="654" y="-117" as="targetPoint" />
          </mxGeometry>
        </mxCell>
        <mxCell id="kB2_EqMijkBHqLcv5fKs-58" value="[se logado e ter simulado&amp;nbsp;&lt;div style=&quot;font-size: 9px;&quot;&gt;ordem de venda]&lt;/div&gt;" style="text;html=1;align=center;verticalAlign=middle;resizable=0;points=[];autosize=1;strokeColor=none;fillColor=none;fontSize=9;" vertex="1" parent="1">
          <mxGeometry x="162" y="-442" width="121" height="34" as="geometry" />
        </mxCell>
        <mxCell id="kB2_EqMijkBHqLcv5fKs-59" value="&lt;b&gt;:Interface&lt;/b&gt;" style="shape=umlLifeline;perimeter=lifelinePerimeter;whiteSpace=wrap;html=1;container=0;dropTarget=0;collapsible=0;recursiveResize=0;outlineConnect=0;portConstraint=eastwest;newEdgeStyle={&quot;edgeStyle&quot;:&quot;elbowEdgeStyle&quot;,&quot;elbow&quot;:&quot;vertical&quot;,&quot;curved&quot;:0,&quot;rounded&quot;:0};" vertex="1" parent="1">
          <mxGeometry x="244" y="-492" width="104" height="498" as="geometry" />
        </mxCell>
        <mxCell id="kB2_EqMijkBHqLcv5fKs-60" value="" style="html=1;points=[];perimeter=orthogonalPerimeter;outlineConnect=0;targetShapes=umlLifeline;portConstraint=eastwest;newEdgeStyle={&quot;edgeStyle&quot;:&quot;elbowEdgeStyle&quot;,&quot;elbow&quot;:&quot;vertical&quot;,&quot;curved&quot;:0,&quot;rounded&quot;:0};" vertex="1" parent="kB2_EqMijkBHqLcv5fKs-59">
          <mxGeometry x="47" y="84" width="10" height="361" as="geometry" />
        </mxCell>
        <mxCell id="kB2_EqMijkBHqLcv5fKs-61" value="" style="endArrow=classic;html=1;rounded=0;fontSize=12;startSize=8;endSize=8;curved=1;" edge="1" parent="1" target="kB2_EqMijkBHqLcv5fKs-60">
          <mxGeometry width="50" height="50" relative="1" as="geometry">
            <mxPoint x="161" y="-407" as="sourcePoint" />
            <mxPoint x="211" y="-457" as="targetPoint" />
          </mxGeometry>
        </mxCell>
        <mxCell id="kB2_EqMijkBHqLcv5fKs-62" value="após simular ordem&lt;div style=&quot;font-size: 9px;&quot;&gt;de venda, escolhe&lt;/div&gt;&lt;div style=&quot;font-size: 9px;&quot;&gt;a opção &quot;efetivar ordem&quot;&lt;/div&gt;" style="edgeLabel;html=1;align=center;verticalAlign=middle;resizable=0;points=[];fontSize=9;" vertex="1" connectable="0" parent="kB2_EqMijkBHqLcv5fKs-61">
          <mxGeometry x="-0.094" y="1" relative="1" as="geometry">
            <mxPoint x="2" y="22" as="offset" />
          </mxGeometry>
        </mxCell>
        <mxCell id="kB2_EqMijkBHqLcv5fKs-63" value="UC-14&lt;div&gt;Efetivar ordem de&lt;br&gt;venda&lt;/div&gt;" style="strokeWidth=2;html=1;shape=mxgraph.flowchart.start_1;whiteSpace=wrap;" vertex="1" parent="1">
          <mxGeometry x="752" y="-630" width="134" height="83" as="geometry" />
        </mxCell>
        <mxCell id="kB2_EqMijkBHqLcv5fKs-64" value="verifica quantidade" style="verticalLabelPosition=middle;verticalAlign=middle;html=1;shape=card;whiteSpace=wrap;size=5;arcSize=12;labelPosition=center;align=center;flipH=1;flipV=1;fontSize=8;" vertex="1" parent="1">
          <mxGeometry x="322" y="-347" width="72" height="20" as="geometry" />
        </mxCell>
        <mxCell id="kB2_EqMijkBHqLcv5fKs-65" value="" style="endArrow=classic;html=1;rounded=0;fontSize=12;startSize=8;endSize=8;curved=1;" edge="1" parent="1" target="kB2_EqMijkBHqLcv5fKs-6">
          <mxGeometry width="50" height="50" relative="1" as="geometry">
            <mxPoint x="291" y="-47" as="sourcePoint" />
            <mxPoint x="341" y="-97" as="targetPoint" />
          </mxGeometry>
        </mxCell>
        <mxCell id="kB2_EqMijkBHqLcv5fKs-66" value="Emite notificação&lt;div&gt;para o usuário&lt;/div&gt;" style="edgeLabel;html=1;align=center;verticalAlign=middle;resizable=0;points=[];" vertex="1" connectable="0" parent="1">
          <mxGeometry x="227.0037658498809" y="-65.00058568858287" as="geometry" />
        </mxCell>
      </root>
    </mxGraphModel>
  </diagram>
</mxfile>
